<svg xmlns="http://www.w3.org/2000/svg" viewBox="0 0 150 150">
<!-- SVG created with Arrow, by QuiverAI (https://quiver.ai) -->
<!-- Animation added: gentle whole-body SWAY pivoting at the planted lower hand,
     plus a clear WAVE of the raised arm/hand pivoting at the shoulder. SMIL
     animateTransform runs even when the SVG is referenced via <img>. -->
  <style type="text/css">.cls-0 {fill:#FFFFFF;}
.cls-1 {fill:none;stroke:#010101;stroke-width:1.4173;stroke-linecap:round;stroke-linejoin:round;stroke-miterlimit:10;}
.cls-2 {fill:none;stroke:#010101;stroke-width:0.9921;stroke-linecap:round;stroke-linejoin:round;stroke-miterlimit:10;}
.cls-3 {fill:none;stroke:#010101;stroke-width:0.7087;stroke-linecap:round;stroke-linejoin:round;stroke-miterlimit:10;}
.cls-4 {fill:#010101;}
.cls-5 {fill:none;stroke:#010101;stroke-width:0.7087;stroke-linecap:round;stroke-miterlimit:10;}
.cls-6 {fill:none;stroke:#010101;stroke-width:0.8504;stroke-linecap:round;stroke-linejoin:round;stroke-miterlimit:10;}
.cls-7 {fill:none;stroke:#010101;stroke-width:0.9921;stroke-linecap:round;stroke-miterlimit:10;}
.cls-8 {fill:none;stroke:#010101;stroke-linecap:round;stroke-linejoin:round;stroke-miterlimit:10;}</style>

  <g id="fig-sway">
    <!-- very subtle, slow body sway about the planted lower hand (~22,117) -->
    <animateTransform attributeName="transform" type="rotate"
      values="-0.5 22 117; 0.5 22 117; -0.5 22 117" keyTimes="0;0.5;1"
      dur="6.5s" calcMode="spline" keySplines="0.42 0 0.58 1; 0.42 0 0.58 1"
      repeatCount="indefinite"/>

    <g id="hand-shift" transform="translate(4.5 3.5)">
    <g id="hand-wave">
      <!-- slow, clear wave of the raised forearm + hand about the shoulder (~80,73).
           Drawn BEFORE the body so the arm reads as behind the torso.
           Wrapped in #hand-shift to nudge the whole arm slightly to the right. -->
      <animateTransform attributeName="transform" type="rotate"
        values="-6 80 73; -20 80 73; -6 80 73" keyTimes="0;0.5;1"
        dur="3s" calcMode="spline" keySplines="0.42 0 0.58 1; 0.42 0 0.58 1"
        repeatCount="indefinite"/>
      <!-- white fill for the arm, BEHIND the outline and inside the wave group, so it
           waves together with the hand (the static body fill no longer has to cover it) -->
      <path class="cls-0" d="m94.1 60.4c-3.4-1.3-6.2-2.5-10.4-3.8l-0.6 0.4-3.5-1.5c-1-3.9-4.1-11.9-4.1-12 0.6-0.5 1.4-2 1.9-2.7 0.7-0.8 2.5-2.2 2-3.9-0.4-1.1-2.4-1.4-4.6 0.7h-0.2c-0.2-2.1 1.5-8.2-1.2-8.2-1.3 0-2.1 2.5-2.5 5.7-0.2-2.8-1-7-3-6.9-2.1 0.3-1.3 4.3-0.6 7.2-1.2-2-2.9-5.4-4.7-4.6-2.1 0.9-0.2 4.3 1.5 6.8-1.6-1.7-4-3.6-4.8-2.1-0.9 1.5 1.5 3.4 2.8 4.9 0.5 1.2 1.3 3.1 2.9 4.1-0.2 1.6 0.1 14.1 3.8 20.5 1.9 2.8 5.8 5 7.7 6.1"/>
      <path class="cls-1" d="m94.1 60.4c-3.4-1.3-6.2-2.5-10.4-3.8l-0.6 0.4-3.5-1.5c-1-3.9-4.1-11.9-4.1-12 0.6-0.5 1.4-2 1.9-2.7 0.7-0.8 2.5-2.2 2-3.9-0.4-1.1-2.4-1.4-4.6 0.7h-0.2c-0.2-2.1 1.5-8.2-1.2-8.2-1.3 0-2.1 2.5-2.5 5.7-0.2-2.8-1-7-3-6.9-2.1 0.3-1.3 4.3-0.6 7.2-1.2-2-2.9-5.4-4.7-4.6-2.1 0.9-0.2 4.3 1.5 6.8-1.6-1.7-4-3.6-4.8-2.1-0.9 1.5 1.5 3.4 2.8 4.9 0.5 1.2 1.3 3.1 2.9 4.1-0.2 1.6 0.1 14.1 3.8 20.5 1.9 2.8 5.8 5 7.7 6.1"/>
      <path class="cls-3" d="m63.8 38c1.6-1.5 5.2-3.3 8.1-2.9"/>
      <path class="cls-5" d="m70.5 40.8c0.3-1.4 1.6-2.7 2.9-2.7"/>
      <path class="cls-1" d="m76.7 71.5c1.8-1.4 6.2-10.4 7-14.2"/>
    </g>
    </g>

    <!-- torso/head/legs silhouette WITHOUT the raised-arm loop (the arm now lives entirely
         in #hand-wave with its own fill), so no static white "hand" sits in front of it -->
    <path class="cls-0" d="M135.7 95.4 L134.3 90.0 L130.7 82.0 L126.0 77.3 L127.8 75.0 L131.1 71.9 L133.5 72.1 L136.6 70.9 L138.1 67.8 L137.6 64.1 L138.1 62.9 L135.4 50.7 L129.3 38.8 L115.4 34.7 L101.1 37.7 L96.1 47.0 L96.5 50.4 L93.8 50.7 L91.7 52.3 L91.6 56.2 L93.4 59.6 L78.0 74.0 L67.5 78.5 L61.5 74.4 L53.2 70.0 L46.0 69.1 L41.3 71.2 L37.4 76.1 L34.4 83.2 L31.5 102.8 L25.8 103.6 L25.4 104.6 L20.8 104.7 L12.2 98.5 L9.6 98.8 L8.7 103.1 L10.4 109.0 L15.8 116.0 L20.2 117.7 L25.2 116.9 L23.9 120.6 L25.8 122.8 L31.1 123.1 L44.1 118.9 L44.5 117.8 L75.5 118.6 L91.6 117.8 L92.9 118.1 L97.7 117.3 L99.4 118.9 L101.1 119.3 L102.7 119.9 L106.3 118.6 L109.5 118.9 L112.7 118.2 L123.1 118.2 L132.3 116.4 L136.6 112.9 L137.8 106.9 Z"/>
    <path class="cls-4" d="m67.5 78.1c-3.4-2.4-10.9-7.9-17.5-8.4-7.9-0.6-13 5.2-15 14-1.6 6.7-2.9 18.2-3.1 21.7l1.1 0.3-0.1 1.6s5 1.6 11.5 1.3l0.6-0.7 0.8 0.3 0.7-0.4c0.8-2.4 4.3-11.3 5.6-21 0.7-0.9 0.8 0.5-0.7 6.1l5.7 5 5.3-0.9c-0.3-2.1 0.5-5 0.9-5.1 0.8 0 0 2.3-0.5 5.4l-13.8 2.3-2.4 8.5-2 0.9-0.5 3 0.4 5.8c8 0.3 31.4 2 46.6 0.3-9.6-4.9-23.3-19.1-23.6-40z"/>

    <path class="cls-1" d="m67.8 78.5c2.2-2.4 6.8-6.4 14.7-6.2 0.9 0.6 2.1-2.7 5.9-4.1"/>
    <path class="cls-1" d="m92.8 118.1c1.8-0.2 3.5-0.5 5.1-1.1"/>
    <path class="cls-1" d="m91.9 117.9c-3.5-1.3-20.3-11.4-23.5-30.6"/>
    <path class="cls-1" d="m26.2 104.4c-1.6 0.1-3.8 0.6-5.1 0.1-2.7-0.9-6.9-5.9-9.9-5.9-3.4 0.2-3.8 6.4 0 11.5 2.9 3.4 4.2 6.4 6.6 7.5 2.6 1 3.9 0 7.7-0.7"/>
    <path class="cls-3" d="m9.6 107.3c2.3-0.4 4.5-3.2 4.6-6.7"/>
    <path class="cls-3" d="m14.5 114.6c2.4-1 5.9-0.6 7.4 2.4"/>
    <path class="cls-3" d="m23.4 105.1c-1 3-0.5 8 1.4 11.3"/>
    <path class="cls-4" d="m25.8 104.5c-0.7 2.6-0.3 8.4 0.8 11.4 1.8-0.3 6-3.4 6.5-5.2 0.4-1.1 0.5-3.8 0.5-3.8-1 0-2.8-0.5-2.5-2.4l0.1-1.6-5.3 0.7-0.1 0.9z"/>
    <path class="cls-1" d="m44.6 117.6c-0.7 2.2-3.1 2.3-5.5 3-2.9 0.8-5.6 2.3-10.3 2.5-5.2 0.1-6.6-2.7-4.3-5l1.6-1.1c1.8-1.1 6-3.9 6.7-5.9 0.6-1.5 0.8-5.2 0.8-5.2 2.6 1.1 8 2 11.3 1.7"/>
    <path class="cls-3" d="m26.2 117.3c2.2 0.3 5.3 1.7 5.7 5.5"/>
    <path class="cls-3" d="m33.4 109c2 1.1 6.5 2.4 11 1.4"/>
    <path class="cls-3" d="m40.2 119.6c-0.1-2.5 0.9-5 4.2-5.6"/>
    <path class="cls-1" d="m95.9 50.4c-4.4-0.8-5.8 5.8-2.3 8.7"/>
    <path class="cls-4" d="m135.1 39.9c-0.5-0.3-0.7-0.3 0 0-0.5-0.3-0.5-0.3-0.7-0.5-1.5-3.9-6.3-8.7-17-8.9-10.3-0.1-22.4 6.1-22.2 19.1v1.4l1.7 1.6 1.3-4.5c3.4 1 10.4 1.8 19.4-2.3-1.1 1.1-3.1 2.7-5.1 3.9 3.8 1 11.4-0.8 15.7-5-1.1 6.2 0 12.2 3.4 16.9l0.5 3.4c0.8-0.5 2.3-2.1 4.8-0.9h1.3c5.9-8 5.4-19.7-3.1-24.2z"/>
    <path class="cls-7" d="m99.8 74.4c-0.2 4.1 3.3 7.5 8.4 6.8 1.9-0.1 3.4-0.7 5.3-1.7"/>
    <path class="cls-2" d="m97.1 53.1c-1.6 1.9-3 5.1-3.3 8.1-0.7 12.3 11.2 17.9 21.4 18.2 1.9 0 3.8-0.3 4.9-0.6"/>
    <path class="cls-1" d="m125 77.1c2.1-0.6 4.6-3.2 6-5.7 3.1 2 7.6-0.7 7.4-4.8-0.3-4.2-4.8-4-6.3-2.1l-0.1-1.6"/>
    <path class="cls-6" d="m106.6 65.5"/>
    <path class="cls-8" d="m94.2 53.1c0.4 0.3 1 0.9 1.2 1.8"/>
    <path class="cls-1" d="m117.6 82.3c0.8-2.7 3.9-4.9 6.5-4.7 5.5 0 9.5 7.4 12.4 16.6 0.4 1.2-0.6 1.2-0.6 1.4 1.2 5 2.3 12 0.2 16.9-3.5 6.4-12.6 6.4-23.3 5.6-1.3 0.5-3.2 1.3-6.2 0.3-1 0-3.1 2.2-5 1.4-2.5-1.4 1.5-4.2 2.8-5.1-2 0.9-4.5 5.2-6 3.5-1.5-1.6 1.2-4.3 4-5.7-2.8 1.4-5.9 5.3-5.3 2.2 0.5-2.3 4.3-7.1 11-7.1 2.3-0.2 10-4.1 18-4.1"/>
    <path class="cls-1" d="m117.7 92.9c0.4 2.7 1.7 7.2 2.9 10.7"/>
    <path class="cls-1" d="m116.1 104.6c1.3-1 3-3.4 3.4-4 4.1-0.2 9.5-0.6 16.6-4.7"/>
    <circle class="cls-3" cx="103.2" cy="56.2" r="5.4"/>
    <circle class="cls-3" cx="119.5" cy="60.7" r="5.6"/>
    <path class="cls-3" d="m108.9 57.6c1.1-1 3.7-1.5 5.5 1"/>
    <path class="cls-8" d="m125.9 62 5.6 1"/>
    <path class="cls-4" d="m103.2 56.5c0.3-1.1 1-2.1 1.9-2 1 0.1 1.4 1.1 1 2.5-0.3 0.9-1.1 1.6-1.9 1.6-0.7-0.1-1.3-1-1-2.1z"/>
    <path class="cls-4" d="m117.6 60.5c0.3-1.1 1-2 1.9-1.9s1.4 1.3 1.1 2.5c-0.2 0.9-1 1.8-1.7 1.7-1-0.2-1.5-1.2-1.3-2.3z"/>
    <path class="cls-5" d="m111 59.2c-1.6-0.3-3.4 1.9-1.1 3.4"/>
    <path class="cls-7" d="m106.5 65.5c1.4 1.5 4.4 2.3 7 1"/>
    <path class="cls-8" d="m132.6 67.3c0.6-0.7 1.8-1.2 3.5-0.8"/>
    <path class="cls-5" d="m132.6 67.3c-0.5 0.5-0.1 0 0 0-0.5 0.5 0 0 0 0s-0.1 0.5 0 0c-0.1 0.5 0 0 0 0s-0.1 0.5 0 0c-0.1 0.5 0 0 0 0s-0.1 0.5 0 0c-0.1 0.5 0 0 0 0s-0.1 0.5 0 0c-0.1 0.5 0 0 0 0s-0.1 0.5 0 0c-0.1 0.5 0 0 0 0s-0.1 0.5 0 0c-0.1 0.5 0 0 0 0s-0.1 0.5 0 0c-0.1 0.5 0 0 0 0s-0.1 0.5 0 0c-0.1 0.5 0 0 0 0s-0.1 0.5 0 0c-0.1 0.5 0 0 0 0s-0.1 0.5 0 0c-0.1 0.5 0 0 0 0s-0.1 0.5 0 0c-0.1 0.5 0 0 0 0s-0.1 0.5 0 0c-0.1 0.5 0 0 0 0"/>
    <path class="cls-8" d="m132.6 67.3c-0.5 0.5-0.1 0.3-0.6 1.6"/>
    <path class="cls-4" d="m119.1 52.1c0.3-0.5 2.8-0.9 5 1.3 0.5 0.6-0.2 1.5-0.7 0.8-1.5-1.6-3.8-1.2-4-1.2-0.5 0-0.5-0.6-0.3-0.9z"/>
    <path class="cls-3" d="m49.2 99.9 13-2.6c-0.3-1.7 0.2-3.9 0.7-4.9"/>
  </g>
</svg>
